<?xml version="1.0" standalone="no"?>
<!DOCTYPE svg PUBLIC "-//W3C//DTD SVG 20010904//EN"
 "http://www.w3.org/TR/2001/REC-SVG-20010904/DTD/svg10.dtd">
<svg version="1.0" xmlns="http://www.w3.org/2000/svg"
 width="293.000000pt" height="260.000000pt" viewBox="0 0 293.000000 260.000000"
 preserveAspectRatio="xMidYMid meet">

<g transform="translate(0.000000,260.000000) scale(0.100000,-0.100000)"
fill="#000000" stroke="none">
<path d="M1267 2286 c-3 -8 -2 -18 3 -21 13 -8 24 15 12 27 -6 6 -11 4 -15 -6z"/>
<path d="M1120 2263 c0 -10 4 -14 8 -8 4 6 11 13 16 18 5 4 2 7 -7 7 -10 0
-17 -8 -17 -17z"/>
<path d="M1410 2262 c0 -5 7 -9 15 -9 8 0 15 4 15 9 0 4 -7 8 -15 8 -8 0 -15
-4 -15 -8z"/>
<path d="M1853 2243 c-10 -3 -9 -8 2 -20 8 -8 13 -18 10 -23 -3 -4 1 -10 8
-13 8 -3 14 3 14 14 1 11 -2 17 -8 14 -5 -4 -9 -1 -9 6 0 7 9 9 23 6 21 -6 21
-6 3 8 -21 16 -24 16 -43 8z"/>
<path d="M986 2231 c-5 -7 -3 -18 3 -24 14 -14 20 -6 11 17 -5 15 -9 16 -14 7z"/>
<path d="M1695 2230 c-11 -5 -17 -9 -13 -9 3 -1 14 -4 24 -8 12 -4 15 -3 10 5
-9 15 -1 15 27 1 21 -10 21 -10 3 5 -22 18 -23 18 -51 6z"/>
<path d="M1825 2196 c1 -24 6 -33 28 -40 22 -8 31 -6 45 9 12 13 12 16 1 7
-12 -9 -19 -9 -29 1 -10 10 -11 9 -5 -3 6 -11 5 -12 -4 -4 -7 6 -13 21 -14 32
-2 35 -23 33 -22 -2z"/>
<path d="M2018 2213 c27 -5 28 -12 5 -29 -12 -9 -14 -13 -5 -14 10 0 10 -4 -2
-16 -16 -15 -41 -11 -31 6 3 5 1 11 -5 15 -15 9 -12 -21 3 -32 17 -15 47 -12
47 4 0 7 7 13 15 13 18 0 19 14 5 41 -6 11 -20 18 -33 18 l-22 -2 23 -4z m32
-33 c0 -5 -5 -10 -11 -10 -5 0 -7 5 -4 10 3 6 8 10 11 10 2 0 4 -4 4 -10z"/>
<path d="M1726 2194 c-4 -11 -13 -14 -30 -10 -18 4 -24 2 -22 -9 3 -20 13 -28
37 -32 12 -2 18 1 14 8 -4 6 -14 8 -22 5 -8 -3 -11 -1 -8 4 3 6 15 10 26 10
12 0 17 4 13 11 -4 8 0 9 15 4 14 -4 21 -2 21 6 0 7 -3 9 -7 6 -3 -4 -12 -2
-18 3 -9 8 -14 6 -19 -6z"/>
<path d="M1970 2206 c0 -2 8 -10 18 -17 15 -13 16 -12 3 4 -13 16 -21 21 -21
13z"/>
<path d="M1570 2190 c0 -5 -5 -9 -11 -7 -6 1 -16 -5 -21 -14 -13 -19 -2 -73
12 -64 6 3 10 2 10 -4 0 -10 40 -8 58 3 20 12 13 32 -15 45 l-28 13 23 -22
c23 -22 31 -40 9 -21 -10 8 -17 7 -26 -2 -10 -9 -15 -8 -27 7 -8 11 -14 27
-13 35 0 10 4 7 9 -6 5 -13 15 -23 21 -23 8 0 8 4 1 13 -6 7 -7 19 -3 26 7 11
13 10 33 -3 22 -14 25 -14 25 -1 0 14 -10 19 -29 16 -5 0 -8 4 -8 9 0 6 -4 10
-10 10 -5 0 -10 -4 -10 -10z"/>
<path d="M1233 2165 c0 -8 4 -12 9 -9 5 3 6 10 3 15 -9 13 -12 11 -12 -6z"/>
<path d="M863 2148 c-2 -16 0 -19 6 -9 5 7 15 17 22 22 11 7 9 9 -6 9 -14 0
-21 -7 -22 -22z"/>
<path d="M1126 2161 c-4 -5 -2 -12 3 -15 5 -4 12 -2 15 3 4 5 2 12 -3 15 -5 4
-12 2 -15 -3z"/>
<path d="M1747 2163 c-4 -3 -7 -11 -7 -17 0 -6 5 -5 12 2 6 6 9 14 7 17 -3 3
-9 2 -12 -2z"/>
<path d="M1335 2150 c3 -5 8 -10 11 -10 2 0 4 5 4 10 0 6 -5 10 -11 10 -5 0
-7 -4 -4 -10z"/>
<path d="M2126 2153 c-15 -4 -16 -7 -5 -14 11 -7 11 -9 -3 -9 -10 0 -18 -5
-18 -10 0 -15 36 6 44 25 3 8 4 14 3 14 -1 -1 -11 -4 -21 -6z"/>
<path d="M880 2139 c0 -5 5 -7 10 -4 6 3 10 8 10 11 0 2 -4 4 -10 4 -5 0 -10
-5 -10 -11z"/>
<path d="M1026 2133 c-11 -11 -6 -23 9 -23 8 0 15 4 15 9 0 13 -16 22 -24 14z"/>
<path d="M2153 2127 c-4 -7 -17 -17 -28 -21 -20 -8 -20 -8 1 -18 15 -7 28 -7
40 2 16 10 15 10 -11 6 -29 -6 -29 -6 -7 7 12 7 19 16 16 20 -4 4 -2 7 4 7 5
0 13 -5 15 -10 3 -6 4 -5 3 2 -3 18 -23 21 -33 5z"/>
<path d="M1431 2113 c-25 -17 -30 -76 -6 -67 11 5 13 2 9 -10 -4 -11 -1 -16
10 -16 10 0 13 6 10 15 -8 20 6 19 23 -2 13 -16 13 -16 4 4 -6 12 -22 30 -36
41 -14 11 -22 23 -16 26 5 3 14 -1 21 -10 7 -8 19 -13 26 -10 8 3 21 -3 31
-12 16 -16 16 -16 10 1 -4 10 -7 24 -7 30 0 7 -4 6 -10 -3 -9 -15 -11 -13 -14
12 -2 17 -32 18 -55 1z m39 -13 c0 -5 -2 -10 -4 -10 -3 0 -8 5 -11 10 -3 6 -1
10 4 10 6 0 11 -4 11 -10z m-20 -41 c0 -6 -4 -7 -10 -4 -5 3 -10 11 -10 16 0
6 5 7 10 4 6 -3 10 -11 10 -16z"/>
<path d="M940 2074 c0 -8 5 -12 10 -9 6 3 10 10 10 16 0 5 -4 9 -10 9 -5 0
-10 -7 -10 -16z"/>
<path d="M760 2065 c-15 -18 -8 -27 20 -32 15 -2 19 2 17 19 -5 28 -20 33 -37
13z m27 -9 c0 -8 -6 -12 -15 -9 -11 5 -11 7 0 14 7 5 13 9 14 9 0 0 1 -6 1
-14z"/>
<path d="M2237 2074 c-3 -3 -3 -13 0 -22 5 -11 3 -13 -7 -7 -7 5 -5 -4 6 -18
21 -30 34 -34 34 -12 0 8 -4 15 -10 15 -5 0 -10 5 -10 11 0 5 4 8 9 5 5 -4 7
3 4 14 -5 20 -15 25 -26 14z"/>
<path d="M2270 2071 c0 -6 4 -12 9 -15 5 -3 7 -16 5 -29 -4 -20 -3 -20 6 3 8
17 8 26 0 28 -5 2 -8 8 -4 13 3 5 0 9 -5 9 -6 0 -11 -4 -11 -9z"/>
<path d="M1324 2018 c-3 -5 0 -7 7 -6 6 2 14 -3 17 -11 3 -11 -2 -12 -24 -8
-16 3 -23 4 -16 1 9 -4 10 -10 2 -19 -7 -9 -5 -19 10 -36 12 -15 19 -19 20
-10 0 10 3 11 14 2 16 -14 46 -4 46 14 0 15 -51 16 -61 1 -4 -4 -10 -3 -13 3
-4 6 -1 11 6 11 9 0 9 3 -2 10 -13 8 -12 10 3 10 9 0 17 -4 17 -9 0 -6 10 -7
23 -5 12 3 28 6 34 6 9 1 10 5 2 15 -6 7 -8 13 -4 13 4 0 2 7 -5 15 -15 18
-33 20 -27 3 2 -7 9 -12 14 -11 5 1 10 -5 10 -13 0 -17 -13 -19 -20 -1 -4 10
-6 10 -6 0 -1 -7 -6 -13 -12 -13 -8 0 -8 5 1 15 9 11 9 15 1 15 -7 0 -10 4 -7
8 3 5 -2 9 -10 9 -8 0 -17 -4 -20 -9z m61 -78 c-3 -5 -12 -10 -18 -10 -7 0 -6
4 3 10 19 12 23 12 15 0z"/>
<path d="M868 2013 c7 -3 16 -2 19 1 4 3 -2 6 -13 5 -11 0 -14 -3 -6 -6z"/>
<path d="M865 1990 c4 -6 11 -8 16 -5 14 9 11 15 -7 15 -8 0 -12 -5 -9 -10z"/>
<path d="M1884 1988 c-4 -7 -3 -8 4 -4 7 4 12 2 12 -3 0 -6 7 -11 16 -11 8 0
12 -5 9 -10 -4 -7 -13 -7 -25 0 -16 8 -18 7 -14 -4 6 -16 20 -16 49 2 11 6 14
12 7 12 -7 0 -10 4 -7 10 4 6 -1 7 -11 3 -12 -4 -15 -3 -10 5 4 7 1 12 -8 12
-8 0 -18 -5 -22 -12z"/>
<path d="M1790 1979 c0 -6 -4 -8 -9 -5 -4 3 -8 -5 -7 -17 1 -12 7 -21 14 -19
7 1 12 -3 12 -10 0 -6 8 -3 20 7 13 12 17 22 11 33 -10 17 -41 25 -41 11z m34
-30 c-5 -8 -44 -8 -44 0 0 2 8 10 17 17 13 9 20 9 25 1 4 -6 5 -14 2 -18z"/>
<path d="M2027 1969 c15 -15 5 -39 -16 -38 -9 0 -11 3 -4 5 7 3 9 12 6 20 -8
22 -23 16 -19 -8 4 -30 32 -35 46 -8 12 22 6 40 -13 40 -8 0 -8 -3 0 -11z"/>
<path d="M2340 1964 c0 -9 -4 -13 -8 -10 -5 3 -9 -1 -9 -9 0 -8 4 -12 8 -10 3
3 9 -5 12 -16 5 -17 9 -19 26 -9 20 10 31 59 14 61 -5 0 -16 2 -25 4 -11 2
-18 -3 -18 -11z m40 -17 c0 -7 -4 -6 -10 3 -8 13 -10 13 -10 -2 0 -9 6 -19 13
-21 7 -4 6 -6 -4 -6 -21 -1 -31 23 -17 37 13 13 28 6 28 -11z"/>
<path d="M685 1952 c-13 -9 -19 -35 -6 -28 5 4 11 1 13 -6 6 -18 40 0 36 19
-4 19 -27 27 -43 15z m26 -9 c-11 -5 -11 -7 0 -15 12 -8 12 -9 0 -6 -22 6 -25
28 -4 27 12 0 14 -2 4 -6z"/>
<path d="M1683 1945 c-18 -19 -16 -35 3 -35 8 0 13 -4 10 -9 -9 -13 22 -7 36
7 9 9 9 12 0 12 -7 0 -12 -5 -12 -12 0 -6 -3 -8 -7 -4 -5 4 0 14 11 21 10 8
15 18 11 24 -9 15 -38 13 -52 -4z m27 -10 c-7 -8 -17 -15 -22 -15 -6 0 -5 7 2
15 7 8 17 15 22 15 6 0 5 -7 -2 -15z"/>
<path d="M807 1933 c-13 -12 -7 -31 8 -29 22 3 27 12 12 24 -8 7 -17 9 -20 5z"/>
<path d="M2087 1927 c-7 -19 12 -47 31 -47 14 1 13 4 -7 20 -13 11 -19 20 -14
20 5 0 14 -5 21 -12 6 -6 14 -10 16 -7 2 2 -6 12 -19 21 -17 13 -25 14 -28 5z"/>
<path d="M2125 1930 c3 -5 8 -10 11 -10 2 0 4 5 4 10 0 6 -5 10 -11 10 -5 0
-7 -4 -4 -10z"/>
<path d="M1267 1907 c4 -6 0 -8 -9 -4 -19 7 -38 -11 -38 -34 0 -13 7 -17 28
-14 21 2 26 8 25 23 -2 15 2 20 11 16 8 -3 13 -14 11 -25 -2 -11 0 -17 6 -14
5 4 7 11 4 16 -4 5 -1 9 5 9 7 0 10 6 7 13 -2 6 -10 11 -16 10 -6 -2 -11 1
-11 5 0 5 -7 9 -15 9 -8 0 -11 -5 -8 -10z m3 -40 c0 -6 -7 -2 -15 9 -10 13
-14 15 -15 5 0 -8 -3 -12 -6 -8 -3 3 -3 11 1 17 8 13 35 -5 35 -23z"/>
<path d="M1595 1900 c3 -5 1 -10 -4 -10 -6 0 -11 -9 -11 -20 0 -11 3 -19 8
-19 4 1 9 0 12 -1 40 -15 68 6 50 39 -6 12 -16 21 -23 21 -7 0 -6 -4 3 -10 11
-7 11 -10 2 -10 -7 0 -11 -4 -8 -8 2 -4 0 -14 -6 -22 -8 -12 -9 -12 -4 2 4 13
1 15 -12 11 -14 -5 -15 -3 -4 8 15 16 16 29 1 29 -5 0 -7 -4 -4 -10z m46 -43
c-10 -9 -11 -8 -5 6 3 10 9 15 12 12 3 -3 0 -11 -7 -18z"/>
<path d="M1325 1860 c-5 -14 -8 -29 -7 -33 1 -5 -8 -6 -20 -3 -13 3 -17 3 -10
0 6 -3 9 -10 6 -16 -4 -6 3 -5 15 2 12 6 19 15 16 20 -3 4 0 10 6 12 6 2 9 13
7 23 -4 18 -5 17 -13 -5z"/>
<path d="M2174 1866 c-8 -20 3 -36 26 -36 19 0 32 21 22 36 -12 16 -42 16 -48
0z m46 -12 c0 -2 -9 -4 -21 -4 -11 0 -18 4 -14 10 5 8 35 3 35 -6z"/>
<path d="M2409 1843 c-9 -10 -9 -14 -2 -10 7 5 21 -1 33 -13 15 -15 20 -17 20
-5 0 8 -6 15 -12 15 -10 0 -10 2 0 9 11 7 10 10 -3 15 -22 8 -21 8 -36 -11z"/>
<path d="M780 1830 c0 -5 5 -10 11 -10 5 0 7 5 4 10 -3 6 -8 10 -11 10 -2 0
-4 -4 -4 -10z"/>
<path d="M1235 1831 c-6 -10 11 -24 32 -27 9 -2 10 3 3 17 -12 21 -25 25 -35
10z m25 -11 c0 -5 -2 -10 -4 -10 -3 0 -8 5 -11 10 -3 6 -1 10 4 10 6 0 11 -4
11 -10z"/>
<path d="M1538 1834 c6 -3 12 -14 12 -24 0 -15 -6 -18 -27 -14 -26 5 -27 4
-11 -12 14 -14 20 -15 32 -5 11 9 15 9 18 -1 3 -9 6 -9 12 0 4 7 2 12 -3 12
-6 0 -11 9 -11 21 0 13 4 18 13 13 6 -4 9 -3 4 1 -4 5 -18 10 -30 11 -12 2
-16 0 -9 -2z"/>
<path d="M645 1820 c-3 -6 -10 -8 -14 -6 -4 3 -8 -1 -8 -9 0 -10 4 -12 12 -5
14 12 40 -12 27 -25 -4 -5 -1 -5 6 -1 16 10 15 31 -2 45 -10 8 -16 9 -21 1z"/>
<path d="M760 1818 c0 -7 10 -14 21 -15 12 -1 20 -1 18 0 -2 2 -12 9 -21 16
-15 11 -18 11 -18 -1z"/>
<path d="M1508 1813 c7 -3 16 -2 19 1 4 3 -2 6 -13 5 -11 0 -14 -3 -6 -6z"/>
<path d="M2414 1804 c3 -8 6 -18 6 -20 0 -2 5 -4 10 -4 16 0 11 27 -6 34 -12
5 -15 2 -10 -10z"/>
<path d="M2254 1803 c10 -11 37 -12 30 -2 -3 5 -12 9 -21 9 -9 0 -13 -3 -9 -7z"/>
<path d="M632 1781 c-11 -7 -11 -9 0 -14 9 -3 15 1 15 9 0 8 -1 14 -1 14 -1 0
-7 -4 -14 -9z"/>
<path d="M1195 1780 c-2 -3 5 -7 16 -7 10 -1 19 2 19 6 0 9 -29 10 -35 1z"/>
<path d="M1245 1760 c2 -19 11 -40 20 -46 13 -10 14 -13 0 -24 -9 -7 -22 -9
-32 -5 -10 5 -28 9 -40 10 -18 2 -21 -1 -12 -12 7 -7 14 -11 17 -8 3 3 11 0
19 -7 11 -9 20 -7 41 9 34 25 41 69 13 78 -11 3 -22 14 -25 23 -2 9 -3 1 -1
-18z m25 -20 c0 -5 -2 -10 -4 -10 -3 0 -8 5 -11 10 -3 6 -1 10 4 10 6 0 11 -4
11 -10z"/>
<path d="M2240 1786 c0 -4 6 -13 13 -20 10 -11 15 -10 27 2 13 14 12 15 -2 10
-8 -4 -21 -1 -27 5 -6 6 -11 8 -11 3z"/>
<path d="M1173 1757 c3 -9 2 -19 -3 -22 -17 -11 -11 -21 13 -21 29 0 30 15 3
40 -16 16 -18 16 -13 3z"/>
<path d="M1470 1760 c-8 -5 -16 -24 -17 -42 -3 -25 -1 -29 7 -18 5 8 10 11 10
5 0 -5 4 -3 10 5 5 8 12 12 15 8 3 -3 -1 -13 -10 -22 -15 -15 -15 -16 2 -16
11 0 24 5 31 12 14 14 16 52 2 43 -5 -3 -7 -12 -4 -19 3 -8 1 -17 -4 -20 -5
-3 -9 2 -8 12 1 12 -5 16 -20 15 -12 -1 -21 4 -21 12 0 18 3 18 27 5 13 -7 19
-6 24 6 5 12 1 14 -15 9 -15 -5 -19 -4 -15 4 9 13 6 14 -14 1z"/>
<path d="M746 1721 c-3 -5 0 -13 7 -19 15 -13 42 1 33 17 -9 13 -33 15 -40 2z
m34 -7 c0 -8 -19 -13 -24 -6 -3 5 1 9 9 9 8 0 15 -2 15 -3z"/>
<path d="M1232 1711 c7 -11 16 -17 20 -15 5 3 2 12 -6 20 -21 20 -28 17 -14
-5z"/>
<path d="M2300 1709 c0 -4 6 -10 13 -12 10 -4 10 -6 0 -6 -7 -1 -13 -5 -13
-10 0 -5 8 -7 18 -4 10 2 18 13 18 23 0 12 -7 18 -18 17 -10 -1 -18 -4 -18 -8z"/>
<path d="M2458 1709 c-21 -11 -23 -34 -6 -45 8 -5 9 -2 5 9 -3 9 -1 19 6 23 7
4 9 4 5 -1 -10 -11 11 -47 23 -40 5 4 7 10 4 15 -3 4 -1 10 5 12 6 2 6 8 0 18
-8 13 -10 12 -10 -2 0 -10 -4 -18 -9 -18 -6 0 -8 9 -6 20 2 11 3 20 2 20 -1 0
-10 -5 -19 -11z"/>
<path d="M613 1670 c9 -6 23 -8 30 -4 7 5 6 0 -3 -10 -8 -11 -16 -14 -18 -7
-2 6 -11 11 -20 10 -11 0 -12 -2 -4 -6 6 -2 9 -10 6 -15 -4 -6 -2 -8 4 -4 5 3
13 0 15 -6 4 -10 6 -10 6 0 1 6 6 12 12 12 5 0 7 -6 3 -12 -5 -10 -4 -10 5 -2
22 20 9 47 -24 51 -25 3 -27 1 -12 -7z"/>
<path d="M1426 1656 c-14 -10 -18 -59 -5 -54 3 2 12 -2 20 -9 11 -9 19 -8 33
3 13 9 15 14 6 14 -11 0 -11 3 -2 12 7 7 12 17 12 23 0 5 -5 3 -10 -5 -9 -13
-10 -13 -11 0 -1 8 -1 18 -1 21 1 10 -28 6 -42 -5z m28 -32 c-3 -18 -1 -23 7
-18 8 4 9 3 5 -5 -6 -8 -12 -9 -20 -2 -7 6 -16 8 -19 4 -4 -3 -7 -1 -7 5 0 7
8 12 18 12 13 0 14 2 3 9 -7 5 -10 14 -7 20 12 19 25 2 20 -25z"/>
<path d="M1169 1623 c-22 -26 -36 -69 -18 -57 4 2 5 12 2 22 -5 14 -4 15 8 4
11 -10 11 -17 2 -31 -13 -21 -3 -37 27 -42 23 -4 72 20 65 31 -3 5 -8 10 -11
10 -3 0 -2 -5 2 -12 5 -7 3 -8 -6 -3 -7 4 -16 2 -21 -6 -7 -11 -9 -11 -9 -1 0
8 -7 11 -19 7 -16 -5 -18 -1 -15 34 3 42 10 61 23 61 9 0 8 -37 -2 -46 -10
-11 -8 -34 3 -34 5 0 7 8 3 18 -5 14 -3 13 10 -3 8 -11 18 -17 22 -14 3 4 -1
13 -9 21 -11 12 -12 18 -3 27 8 8 8 11 -1 11 -7 0 -11 5 -9 11 5 23 -20 18
-44 -8z"/>
<path d="M1238 1628 c8 -10 9 -18 3 -22 -6 -4 -8 -13 -5 -21 4 -8 10 -13 14
-10 5 3 11 -1 13 -7 3 -7 5 0 4 15 -1 15 -10 36 -22 45 -17 15 -18 15 -7 0z"/>
<path d="M1680 1630 c13 -9 13 -10 0 -10 -13 0 -13 -1 0 -10 8 -5 11 -12 7
-16 -10 -10 -38 16 -30 29 3 6 1 7 -6 3 -6 -4 -9 -11 -6 -16 3 -4 -1 -10 -7
-13 -15 -5 1 -40 16 -37 5 1 13 -4 17 -12 8 -11 10 -11 18 0 4 8 11 13 15 13
3 -1 6 2 5 5 0 4 5 11 13 15 10 6 8 9 -7 9 -17 0 -18 2 -5 10 13 9 12 12 -4
25 -11 8 -25 15 -30 15 -6 0 -4 -5 4 -10z m0 -50 c10 0 21 -3 23 -7 3 -5 -7
-8 -21 -7 -28 1 -33 5 -31 27 0 10 2 10 6 0 2 -7 13 -13 23 -13z"/>
<path d="M759 1628 c-6 -20 -5 -37 1 -33 5 3 10 -1 13 -7 4 -10 7 -11 18 0 11
10 10 12 -4 12 -9 0 -17 5 -17 11 0 6 7 8 16 5 8 -3 12 -2 9 4 -5 9 -34 15
-36 8z"/>
<path d="M2333 1605 c-3 -9 -3 -19 1 -22 3 -4 6 2 6 13 0 15 2 16 9 4 6 -8 7
-18 4 -24 -3 -5 -1 -6 5 -2 9 5 9 13 2 27 -13 23 -19 24 -27 4z"/>
<path d="M1399 1554 c-7 -9 -8 -14 -1 -14 5 0 12 -10 15 -22 4 -12 9 -20 12
-16 3 3 1 17 -4 31 -8 21 -7 25 7 23 9 -2 18 -9 20 -17 3 -11 1 -11 -7 1 -14
20 -14 4 0 -22 9 -16 8 -23 -2 -29 -8 -5 -9 -9 -4 -9 20 0 38 17 26 24 -6 4
-11 12 -11 18 0 7 6 6 15 -2 19 -16 19 -1 -1 25 -18 24 -49 28 -65 9z"/>
<path d="M2464 1558 c-5 -7 -2 -9 7 -6 8 3 20 -1 28 -9 11 -13 9 -14 -17 -10
-23 4 -29 2 -26 -8 6 -15 46 -16 56 -1 9 14 -10 46 -27 46 -7 0 -17 -5 -21
-12z"/>
<path d="M1875 1542 c-3 -3 -5 -10 -5 -16 0 -6 5 -4 10 4 5 8 10 13 11 10 0
-3 2 -13 4 -23 2 -13 -1 -17 -11 -13 -10 4 -12 2 -8 -5 4 -7 1 -10 -7 -7 -8 3
-13 15 -13 27 1 16 -2 19 -12 10 -7 -6 -10 -18 -7 -26 4 -10 2 -14 -4 -10 -5
3 -10 0 -10 -8 0 -8 7 -15 14 -15 8 0 12 4 9 8 -3 5 8 9 24 9 16 0 27 -4 24
-9 -3 -4 0 -8 6 -8 6 0 10 8 8 17 -2 10 4 18 15 19 12 1 13 0 2 -3 -11 -3 -12
-9 -5 -22 12 -24 2 -33 -23 -19 -16 8 -23 7 -33 -7 -18 -24 -10 -33 28 -31 21
1 33 7 33 16 1 8 6 14 13 13 7 -2 12 4 12 13 0 8 -4 12 -10 9 -5 -3 -10 -1
-10 4 0 6 5 11 10 11 16 0 12 26 -7 41 -11 10 -14 10 -9 2 4 -7 2 -13 -3 -13
-6 0 -11 6 -11 13 0 13 -25 19 -35 9z m43 -108 c1 -1 -11 -1 -27 0 -22 1 -27
4 -19 14 8 10 14 10 27 0 9 -7 17 -13 19 -14z"/>
<path d="M619 1535 c0 0 -2 -11 -5 -24 -7 -37 23 -52 50 -25 20 20 5 53 -24
51 -11 -1 -20 -1 -21 -2z m41 -37 c0 -4 -5 -10 -12 -14 -7 -5 -8 -3 -3 6 6 10
4 12 -8 7 -11 -4 -15 0 -14 12 1 15 4 17 19 7 10 -6 18 -14 18 -18z"/>
<path d="M789 1538 c-9 -38 8 -67 30 -53 16 9 6 50 -12 53 -10 2 -17 2 -18 0z
m27 -35 c-10 -11 -19 -7 -22 10 -2 15 0 16 12 6 8 -6 12 -14 10 -16z"/>
<path d="M1625 1520 c-4 -6 -10 -8 -14 -6 -4 3 -7 -9 -7 -25 1 -38 27 -55 56
-37 23 15 25 24 8 34 -7 4 -10 4 -6 -1 9 -9 -9 -35 -23 -35 -5 0 -4 9 3 20 11
17 10 22 -2 30 -8 5 -11 12 -7 16 4 4 13 2 19 -4 15 -15 28 -15 28 -1 0 5 -4
7 -10 4 -5 -3 -10 -1 -10 4 0 14 -27 14 -35 1z m5 -30 c0 -5 0 -12 0 -15 0
-14 -13 -8 -16 8 -1 9 2 17 7 17 5 0 9 -4 9 -10z"/>
<path d="M2342 1493 c4 -21 33 -25 33 -3 0 8 -8 16 -18 18 -14 3 -18 -1 -15
-15z m28 -3 c0 -5 -4 -10 -10 -10 -5 0 -10 5 -10 10 0 6 5 10 10 10 6 0 10 -4
10 -10z"/>
<path d="M833 1433 c-3 -7 2 -19 10 -27 19 -19 51 1 42 26 -8 19 -45 20 -52 1z
m31 -4 c-2 -4 2 -10 8 -12 8 -4 9 -6 2 -6 -6 -1 -17 5 -23 12 -8 10 -7 14 4
14 8 0 12 -4 9 -8z"/>
<path d="M1570 1430 c0 -11 -4 -20 -10 -20 -5 0 -7 8 -3 18 3 9 3 14 -1 10
-13 -11 -14 -57 -2 -66 20 -15 48 -7 65 18 12 18 13 22 2 15 -11 -6 -13 -4 -8
8 3 9 1 19 -5 23 -6 4 -8 3 -4 -4 3 -5 0 -12 -6 -15 -10 -3 -10 -7 0 -19 10
-13 10 -17 -2 -21 -23 -9 -37 15 -20 37 16 23 18 36 4 36 -5 0 -10 -9 -10 -20z"/>
<path d="M2463 1401 c-3 -11 -9 -18 -14 -15 -5 3 -6 -1 -3 -9 3 -9 13 -13 25
-10 14 4 17 9 10 16 -6 6 -11 16 -11 22 0 5 5 3 10 -5 6 -9 10 -10 10 -3 0 22
-21 25 -27 4z"/>
<path d="M664 1398 c-17 -27 -12 -42 6 -18 10 14 22 21 26 17 4 -4 1 -7 -7 -7
-10 -1 -9 -4 4 -11 17 -10 15 -29 -4 -29 -6 0 -7 5 -4 10 9 14 -1 12 -13 -3
-8 -10 -5 -13 14 -15 27 -2 45 25 25 38 -7 4 -12 11 -11 16 2 15 -27 16 -36 2z"/>
<path d="M1799 1392 c-15 -13 -19 -21 -10 -26 6 -4 10 -3 9 4 -4 16 36 30 53
19 11 -8 10 -9 -5 -7 -10 2 -21 -2 -23 -8 -5 -14 30 -14 39 0 8 12 -9 36 -27
36 -7 0 -23 -8 -36 -18z"/>
<path d="M909 1373 c-9 -26 -1 -47 19 -48 13 -1 25 2 28 7 3 5 2 8 -3 7 -19
-3 -33 2 -33 12 0 6 9 8 21 4 15 -5 20 -3 17 6 -4 11 -46 22 -49 12z"/>
<path d="M2335 1370 c4 -6 11 -8 16 -5 14 9 11 15 -7 15 -8 0 -12 -5 -9 -10z"/>
<path d="M1479 1363 c0 -5 -2 -18 -5 -30 -2 -12 1 -25 6 -28 5 -3 7 1 4 9 -4
10 0 14 15 13 24 -1 26 -8 9 -25 -9 -9 -9 -12 1 -12 7 0 15 9 18 20 3 11 10
17 15 14 6 -4 8 2 6 11 -1 10 -10 20 -18 22 -13 4 -13 3 0 -6 8 -6 13 -11 10
-12 -3 0 -13 -2 -22 -4 -9 -2 -19 4 -22 12 -3 8 -1 11 4 8 6 -3 10 -1 10 4 0
12 -30 15 -31 4z"/>
<path d="M1866 1354 c-5 -12 -10 -13 -19 -6 -7 6 -19 7 -26 3 -9 -6 -10 -11
-2 -15 6 -4 8 -18 5 -31 -5 -19 -2 -23 13 -20 10 2 25 4 33 4 13 1 13 2 0 11
-12 8 -12 10 -1 10 10 0 11 3 2 14 -9 10 -7 17 6 27 15 12 16 12 10 -3 -3 -10
-3 -19 1 -22 4 -2 9 6 10 20 2 27 -22 34 -32 8z m-9 -37 c-6 -19 -23 -18 -23
2 0 11 5 17 14 14 7 -3 11 -10 9 -16z"/>
<path d="M1775 1337 c5 -24 35 -58 35 -39 0 7 -4 12 -10 12 -5 0 -10 5 -10 11
0 5 4 7 10 4 5 -3 7 0 4 9 -9 25 -33 28 -29 3z"/>
<path d="M1013 1307 c1 -7 -6 -11 -15 -11 -22 2 -23 -9 -4 -25 11 -9 20 -10
36 -1 24 13 23 42 -2 46 -10 1 -16 -3 -15 -9z m27 -18 c0 -5 -4 -7 -10 -4 -5
3 -10 1 -10 -4 0 -6 -5 -11 -11 -11 -8 0 -8 5 1 15 14 17 30 20 30 4z"/>
<path d="M1409 1306 c10 -12 9 -14 -6 -12 -10 2 -12 1 -5 -1 6 -3 12 -10 12
-16 0 -7 4 -6 10 3 8 13 11 13 22 1 10 -10 10 -12 1 -7 -7 4 -13 2 -13 -3 0
-6 7 -11 15 -11 8 0 15 9 15 21 0 11 -5 17 -10 14 -6 -3 -13 1 -16 9 -3 9 -13
16 -21 16 -12 0 -13 -3 -4 -14z"/>
<path d="M2299 1308 c-7 -28 -5 -38 7 -38 16 0 19 26 4 35 -5 3 -10 5 -11 3z"/>
<path d="M723 1274 c-3 -7 -1 -19 3 -26 5 -7 9 -16 9 -20 0 -20 11 -13 11 7 0
13 -4 21 -8 19 -4 -3 -8 0 -8 5 0 6 3 11 8 12 4 0 15 2 25 4 9 2 17 -3 17 -11
0 -8 5 -14 10 -14 7 0 8 6 1 17 -11 20 -61 25 -68 7z"/>
<path d="M1090 1276 c-8 -10 -8 -20 -2 -32 12 -22 42 -27 42 -8 0 15 -15 19
-23 7 -2 -5 -2 -2 -1 5 2 6 -2 12 -9 12 -8 0 -6 4 3 10 8 5 20 10 25 10 6 0 5
-4 -2 -8 -9 -6 -7 -11 6 -19 15 -9 19 -9 17 0 -5 36 -34 48 -56 23z"/>
<path d="M1300 1275 c-6 -8 -10 -20 -7 -27 3 -7 6 -4 6 7 1 16 3 17 11 5 5 -9
5 -19 -2 -27 -6 -7 -9 -13 -7 -14 31 -6 40 -5 47 4 13 17 11 44 -4 44 -7 0
-11 -4 -8 -9 3 -4 1 -8 -4 -8 -18 0 -21 29 -4 33 15 4 15 5 1 6 -9 0 -22 -6
-29 -14z m43 -46 c-8 -8 -13 -7 -18 2 -5 8 -4 10 3 5 7 -4 12 -2 12 5 0 7 3 9
7 6 4 -4 2 -12 -4 -18z"/>
<path d="M1754 1281 c5 -8 3 -12 -5 -10 -38 5 -59 -22 -38 -47 8 -10 8 -14 0
-14 -18 0 -13 -14 10 -28 15 -10 24 -11 32 -3 6 6 18 11 27 11 13 0 13 -1 0
-10 -8 -5 -10 -10 -4 -10 15 0 36 25 27 33 -3 4 -1 7 5 7 15 0 6 41 -14 59 -9
9 -14 11 -10 4 3 -6 3 -13 -1 -16 -5 -2 -2 -2 5 0 8 1 12 -3 9 -9 -2 -7 -11
-12 -20 -12 -9 1 -15 -2 -12 -6 3 -5 1 -11 -5 -15 -6 -4 -8 -10 -5 -15 3 -5 1
-11 -4 -15 -6 -3 -8 5 -5 20 4 23 -4 30 -29 26 -5 -1 -5 3 -2 9 4 6 14 9 23 5
9 -3 13 -3 9 1 -4 4 1 12 10 19 13 9 13 14 3 20 -9 6 -11 4 -6 -4z m46 -56
c-6 -8 -9 -19 -5 -24 3 -7 0 -8 -9 -5 -20 8 -20 14 2 30 23 18 27 17 12 -1z
m-64 -20 c1 -8 -2 -15 -6 -15 -5 0 -8 9 -7 20 1 21 10 18 13 -5z"/>
<path d="M1387 1264 c3 -7 14 -16 25 -20 32 -10 32 3 -1 19 -23 12 -28 12 -24
1z"/>
<path d="M2384 1269 c-3 -6 1 -18 10 -27 15 -15 17 -15 33 1 12 11 13 17 5 17
-8 0 -10 5 -6 12 5 7 3 8 -5 4 -7 -5 -10 -15 -6 -23 4 -13 3 -14 -10 -3 -8 7
-12 16 -9 21 3 5 3 9 0 9 -3 0 -8 -5 -12 -11z"/>
<path d="M1202 1262 c-18 -6 16 -31 43 -32 15 0 17 2 6 9 -7 5 -10 14 -7 20 4
6 2 11 -3 11 -6 0 -11 -6 -11 -12 0 -9 -3 -10 -8 -2 -4 6 -13 9 -20 6z"/>
<path d="M763 1231 c0 -11 5 -18 9 -15 4 3 5 11 1 19 -7 21 -12 19 -10 -4z"/>
<path d="M1197 1233 c-14 -13 -6 -19 26 -20 18 -1 23 1 12 4 -11 3 -23 9 -26
14 -3 5 -8 6 -12 2z"/>
<path d="M2233 1205 c0 -8 6 -15 12 -15 6 0 12 7 12 15 0 8 -6 15 -12 15 -6 0
-12 -7 -12 -15z"/>
<path d="M825 1180 c-3 -5 -3 -10 2 -10 4 0 1 -5 -7 -10 -11 -7 -11 -10 -2
-10 7 0 12 -7 10 -16 -4 -20 46 -31 58 -13 4 7 0 9 -14 5 -12 -4 -23 -2 -28 5
-5 9 -2 10 9 6 10 -3 17 -2 17 3 0 5 7 7 15 4 8 -4 15 -1 15 5 0 6 -3 10 -7
10 -21 -3 -26 2 -13 12 13 9 13 10 0 6 -8 -2 -14 -9 -13 -14 1 -5 -6 -9 -16
-9 -10 0 -18 6 -18 13 0 7 4 10 8 7 4 -2 10 0 14 6 3 5 -1 10 -9 10 -8 0 -18
-4 -21 -10z"/>
<path d="M1646 1182 c-4 -7 -11 -10 -16 -7 -4 3 -13 -1 -19 -9 -12 -15 -5 -46
11 -46 6 0 5 6 -2 15 -14 16 -3 20 19 6 8 -5 10 -14 6 -21 -5 -9 -4 -11 3 -6
15 9 16 36 2 36 -5 0 -10 4 -10 10 0 5 10 8 23 6 12 -2 21 -9 19 -16 -1 -6 2
-9 7 -6 5 4 12 -2 14 -11 4 -17 5 -17 6 0 1 22 -25 51 -38 43 -5 -4 -11 -1
-13 6 -3 9 -6 9 -12 0z"/>
<path d="M2323 1163 c-15 -6 -17 -29 -3 -38 5 -3 7 0 4 8 -3 8 0 18 7 23 7 4
10 3 6 -2 -3 -6 -2 -16 4 -24 7 -12 9 -10 9 7 0 24 -9 33 -27 26z"/>
<path d="M2160 1134 c0 -17 22 -14 28 4 2 7 -3 12 -12 12 -9 0 -16 -7 -16 -16z"/>
<path d="M1679 1107 c6 -8 7 -18 3 -23 -4 -4 1 -2 11 5 18 14 24 26 7 16 -5
-3 -10 -1 -10 4 0 6 -5 11 -11 11 -8 0 -9 -4 0 -13z"/>
<path d="M970 1095 c14 -8 21 -14 16 -15 -5 0 -3 -6 3 -14 8 -9 9 -16 2 -21
-6 -3 -13 6 -17 20 -3 14 -12 25 -20 25 -19 0 -18 -16 1 -24 8 -3 15 -10 15
-16 0 -7 -7 -7 -22 1 -20 11 -21 10 -10 -3 19 -24 58 -19 73 8 15 30 3 46 -38
50 l-28 3 25 -14z m40 -16 c0 -5 -4 -9 -8 -9 -5 0 -9 7 -9 15 0 8 4 12 9 9 4
-3 8 -9 8 -15z"/>
<path d="M1513 1095 c4 -8 2 -17 -3 -20 -6 -3 -14 -15 -20 -25 -8 -16 -6 -22
15 -36 21 -14 31 -15 50 -6 14 7 25 15 24 19 -1 5 0 10 1 13 7 19 7 39 -1 34
-5 -3 -6 -10 -3 -16 5 -7 2 -8 -6 -3 -9 6 -11 4 -5 -5 5 -8 4 -11 -3 -6 -6 3
-13 2 -17 -4 -3 -5 2 -10 12 -10 17 -1 17 -1 -1 -11 -13 -8 -24 -8 -40 0 -20
10 -20 11 4 5 22 -6 23 -5 11 9 -7 9 -17 14 -22 11 -5 -3 -9 -1 -9 4 0 14 26
33 33 25 4 -3 7 -1 7 5 0 5 -5 13 -10 15 -6 3 -5 4 2 3 7 -2 13 -9 13 -17 0
-8 -6 -13 -12 -11 -15 2 -18 -14 -4 -22 4 -3 17 4 27 15 18 20 18 21 -1 35
-25 18 -49 18 -42 -1z"/>
<path d="M1614 1091 c20 -22 26 -25 26 -13 0 4 -10 13 -22 21 -23 14 -23 14
-4 -8z"/>
<path d="M1486 1083 c-6 -14 -5 -15 5 -6 7 7 10 15 7 18 -3 3 -9 -2 -12 -12z"/>
<path d="M1656 1091 c-4 -7 -5 -15 -2 -18 9 -9 19 4 14 18 -4 11 -6 11 -12 0z"/>
<path d="M2076 1092 c-3 -6 -1 -14 5 -17 15 -10 25 3 12 16 -7 7 -13 7 -17 1z"/>
<path d="M1100 1060 c0 -5 -3 -9 -7 -7 -5 1 -10 -2 -13 -8 -2 -5 8 -16 23 -23
15 -7 24 -18 21 -24 -4 -5 -9 -6 -13 -2 -11 16 -51 35 -51 24 0 -5 5 -10 11
-10 5 0 8 -4 4 -9 -6 -11 12 -24 37 -28 10 -2 17 3 15 9 -1 7 5 12 13 13 17 0
27 35 10 35 -6 0 -8 -4 -5 -10 7 -11 -8 -14 -18 -4 -9 10 4 34 16 27 6 -3 7
-1 3 5 -4 6 -14 8 -23 5 -11 -4 -14 -3 -9 5 4 7 2 12 -3 12 -6 0 -11 -4 -11
-10z m0 -70 c0 -5 -2 -10 -4 -10 -3 0 -8 5 -11 10 -3 6 -1 10 4 10 6 0 11 -4
11 -10z"/>
<path d="M1369 1049 c-13 -11 -19 -18 -12 -15 6 4 14 2 18 -4 3 -5 -1 -10 -10
-10 -12 0 -15 -6 -9 -22 10 -34 17 -36 75 -29 4 1 9 12 11 26 3 13 2 22 -3 20
-4 -3 -10 -1 -13 4 -4 5 1 11 10 13 16 3 16 4 0 17 -14 12 -17 12 -14 1 4 -18
-31 -25 -46 -10 -8 10 -5 11 14 5 17 -4 21 -3 11 3 -11 8 -11 10 0 15 8 3 9 6
3 6 -7 1 -22 -8 -35 -20z m56 -54 c0 -16 -5 -19 -25 -16 -29 4 -44 22 -27 33
22 14 52 4 52 -17z"/>
<path d="M2218 1063 c-8 -16 -3 -36 10 -39 7 -1 8 0 3 2 -6 3 -7 12 -4 20 5
13 7 13 15 2 8 -10 9 -10 6 1 -5 17 -24 26 -30 14z"/>
<path d="M1985 1050 c-3 -5 -1 -10 4 -10 6 0 11 5 11 10 0 6 -2 10 -4 10 -3 0
-8 -4 -11 -10z"/>
<path d="M1233 1043 c-7 -2 -9 -11 -6 -20 4 -11 2 -14 -5 -9 -9 5 -11 -27 -3
-53 2 -7 31 22 31 31 0 6 -8 4 -17 -3 -14 -12 -14 -10 2 18 10 18 23 29 29 26
6 -4 6 -8 -2 -11 -7 -2 -12 -8 -12 -13 0 -6 5 -7 11 -3 8 4 9 0 4 -15 -4 -13
-2 -21 5 -21 6 0 9 4 6 8 -2 4 0 14 5 22 7 11 8 8 5 -10 -3 -19 -9 -24 -25
-23 -11 2 -21 -2 -21 -7 0 -19 39 -10 54 12 11 16 13 25 4 35 -6 7 -7 13 -2
13 4 0 3 5 -4 12 -13 13 -41 18 -59 11z m52 -12 c3 -5 2 -12 -3 -15 -5 -3 -9
1 -9 9 0 17 3 19 12 6z"/>
<path d="M2099 982 c11 -8 11 -10 0 -15 -10 -4 -8 -6 4 -6 21 -1 18 21 -4 27
-12 3 -12 2 0 -6z"/>
<path d="M1954 939 c-4 -8 -3 -9 4 -5 7 4 12 2 12 -3 0 -6 5 -11 11 -11 13 0
7 22 -8 27 -6 2 -15 -1 -19 -8z"/>
<path d="M1814 919 c2 -15 20 -13 24 3 3 10 2 10 -6 -1 -7 -9 -11 -10 -15 -2
-4 7 -5 8 -3 0z"/>
</g>
</svg>
